<mxfile host="app.diagrams.net" modified="2021-06-22T06:17:25.501Z" agent="5.0 (Windows NT 10.0; Win64; x64) AppleWebKit/537.36 (KHTML, like Gecko) Chrome/91.0.4472.101 Safari/537.36" etag="ef13D6qJR7PtULVIXvoO" version="14.7.8" type="github">
  <diagram id="elQWaav2V3KjPdsPTwyC" name="第 1 页">
    <mxGraphModel dx="3318" dy="1293" grid="0" gridSize="10" guides="1" tooltips="1" connect="1" arrows="1" fold="1" page="0" pageScale="1" pageWidth="827" pageHeight="1169" math="0" shadow="0">
      <root>
        <mxCell id="0" />
        <mxCell id="1" parent="0" />
        <mxCell id="z09Y47deeIsvJzvmOgGG-1" value="center" style="rounded=0;whiteSpace=wrap;html=1;sketch=1;hachureGap=4;pointerEvents=0;fontFamily=Architects Daughter;fontSource=https%3A%2F%2Ffonts.googleapis.com%2Fcss%3Ffamily%3DArchitects%2BDaughter;fontSize=20;" parent="1" vertex="1">
          <mxGeometry x="-1186" y="421" width="998" height="615" as="geometry" />
        </mxCell>
        <mxCell id="z09Y47deeIsvJzvmOgGG-2" value="gw" style="ellipse;whiteSpace=wrap;html=1;sketch=1;hachureGap=4;pointerEvents=0;fontFamily=Architects Daughter;fontSource=https%3A%2F%2Ffonts.googleapis.com%2Fcss%3Ffamily%3DArchitects%2BDaughter;fontSize=20;" parent="1" vertex="1">
          <mxGeometry x="286" y="482" width="331" height="338" as="geometry" />
        </mxCell>
        <mxCell id="z09Y47deeIsvJzvmOgGG-3" value="" style="edgeStyle=none;curved=1;rounded=0;sketch=1;orthogonalLoop=1;jettySize=auto;html=1;endArrow=open;sourcePerimeterSpacing=8;targetPerimeterSpacing=8;fontSize=16;shape=flexArrow;rounded=1;startSize=8;endSize=8;fontFamily=Architects Daughter;fontSource=https%3A%2F%2Ffonts.googleapis.com%2Fcss%3Ffamily%3DArchitects%2BDaughter;" parent="1" edge="1">
          <mxGeometry width="140" relative="1" as="geometry">
            <mxPoint x="719" y="506" as="sourcePoint" />
            <mxPoint x="628" y="506" as="targetPoint" />
            <Array as="points" />
          </mxGeometry>
        </mxCell>
        <mxCell id="z09Y47deeIsvJzvmOgGG-4" value="req1" style="text;html=1;align=center;verticalAlign=middle;resizable=0;points=[];autosize=1;strokeColor=none;sketch=1;hachureGap=4;pointerEvents=0;fontFamily=Architects Daughter;fontSource=https%3A%2F%2Ffonts.googleapis.com%2Fcss%3Ffamily%3DArchitects%2BDaughter;fontSize=20;" parent="1" vertex="1">
          <mxGeometry x="742" y="482" width="45" height="28" as="geometry" />
        </mxCell>
        <mxCell id="z09Y47deeIsvJzvmOgGG-5" value="" style="edgeStyle=none;curved=1;rounded=0;sketch=1;orthogonalLoop=1;jettySize=auto;html=1;endArrow=open;sourcePerimeterSpacing=8;targetPerimeterSpacing=8;fontSize=16;shape=flexArrow;rounded=1;startSize=8;endSize=8;fontFamily=Architects Daughter;fontSource=https%3A%2F%2Ffonts.googleapis.com%2Fcss%3Ffamily%3DArchitects%2BDaughter;entryX=0.975;entryY=0.39;entryDx=0;entryDy=0;entryPerimeter=0;" parent="1" edge="1">
          <mxGeometry width="140" relative="1" as="geometry">
            <mxPoint x="802" y="555" as="sourcePoint" />
            <mxPoint x="636" y="562" as="targetPoint" />
            <Array as="points" />
          </mxGeometry>
        </mxCell>
        <mxCell id="z09Y47deeIsvJzvmOgGG-6" value="req2" style="text;html=1;align=center;verticalAlign=middle;resizable=0;points=[];autosize=1;strokeColor=none;sketch=1;hachureGap=4;pointerEvents=0;fontFamily=Architects Daughter;fontSource=https%3A%2F%2Ffonts.googleapis.com%2Fcss%3Ffamily%3DArchitects%2BDaughter;fontSize=20;" parent="1" vertex="1">
          <mxGeometry x="824" y="538" width="54" height="28" as="geometry" />
        </mxCell>
        <mxCell id="z09Y47deeIsvJzvmOgGG-7" value="" style="edgeStyle=none;curved=1;rounded=0;sketch=1;orthogonalLoop=1;jettySize=auto;html=1;endArrow=open;sourcePerimeterSpacing=8;targetPerimeterSpacing=8;fontSize=16;shape=flexArrow;rounded=1;startSize=8;endSize=8;fontFamily=Architects Daughter;fontSource=https%3A%2F%2Ffonts.googleapis.com%2Fcss%3Ffamily%3DArchitects%2BDaughter;entryX=0.975;entryY=0.39;entryDx=0;entryDy=0;entryPerimeter=0;" parent="1" edge="1">
          <mxGeometry width="140" relative="1" as="geometry">
            <mxPoint x="811" y="617" as="sourcePoint" />
            <mxPoint x="685" y="624" as="targetPoint" />
            <Array as="points" />
          </mxGeometry>
        </mxCell>
        <mxCell id="z09Y47deeIsvJzvmOgGG-8" value="req3" style="text;html=1;align=center;verticalAlign=middle;resizable=0;points=[];autosize=1;strokeColor=none;sketch=1;hachureGap=4;pointerEvents=0;fontFamily=Architects Daughter;fontSource=https%3A%2F%2Ffonts.googleapis.com%2Fcss%3Ffamily%3DArchitects%2BDaughter;fontSize=20;" parent="1" vertex="1">
          <mxGeometry x="837" y="600" width="52" height="28" as="geometry" />
        </mxCell>
        <mxCell id="z09Y47deeIsvJzvmOgGG-9" value="" style="edgeStyle=none;curved=1;rounded=0;sketch=1;orthogonalLoop=1;jettySize=auto;html=1;endArrow=open;sourcePerimeterSpacing=8;targetPerimeterSpacing=8;fontSize=16;shape=flexArrow;rounded=1;startSize=8;endSize=8;fontFamily=Architects Daughter;fontSource=https%3A%2F%2Ffonts.googleapis.com%2Fcss%3Ffamily%3DArchitects%2BDaughter;entryX=0.975;entryY=0.39;entryDx=0;entryDy=0;entryPerimeter=0;" parent="1" edge="1">
          <mxGeometry width="140" relative="1" as="geometry">
            <mxPoint x="972" y="666" as="sourcePoint" />
            <mxPoint x="795" y="673" as="targetPoint" />
            <Array as="points" />
          </mxGeometry>
        </mxCell>
        <mxCell id="z09Y47deeIsvJzvmOgGG-10" value="req4" style="text;html=1;align=center;verticalAlign=middle;resizable=0;points=[];autosize=1;strokeColor=none;sketch=1;hachureGap=4;pointerEvents=0;fontFamily=Architects Daughter;fontSource=https%3A%2F%2Ffonts.googleapis.com%2Fcss%3Ffamily%3DArchitects%2BDaughter;fontSize=20;" parent="1" vertex="1">
          <mxGeometry x="986" y="646" width="56" height="28" as="geometry" />
        </mxCell>
        <mxCell id="z09Y47deeIsvJzvmOgGG-11" value="" style="edgeStyle=none;curved=1;rounded=0;sketch=1;orthogonalLoop=1;jettySize=auto;html=1;endArrow=open;sourcePerimeterSpacing=8;targetPerimeterSpacing=8;fontSize=16;fontFamily=Architects Daughter;fontSource=https%3A%2F%2Ffonts.googleapis.com%2Fcss%3Ffamily%3DArchitects%2BDaughter;startSize=14;endSize=14;" parent="1" edge="1">
          <mxGeometry width="120" relative="1" as="geometry">
            <mxPoint x="244" y="554" as="sourcePoint" />
            <mxPoint x="-176" y="554" as="targetPoint" />
            <Array as="points">
              <mxPoint x="-26" y="554" />
              <mxPoint x="-10" y="554" />
            </Array>
          </mxGeometry>
        </mxCell>
        <mxCell id="z09Y47deeIsvJzvmOgGG-12" value="3:req-s:traceId1" style="text;html=1;align=center;verticalAlign=middle;resizable=0;points=[];autosize=1;strokeColor=none;sketch=1;hachureGap=4;pointerEvents=0;fontFamily=Architects Daughter;fontSource=https%3A%2F%2Ffonts.googleapis.com%2Fcss%3Ffamily%3DArchitects%2BDaughter;fontSize=20;" parent="1" vertex="1">
          <mxGeometry x="-69" y="514" width="144" height="28" as="geometry" />
        </mxCell>
        <mxCell id="z09Y47deeIsvJzvmOgGG-13" value="" style="edgeStyle=none;curved=1;rounded=0;sketch=1;orthogonalLoop=1;jettySize=auto;html=1;endArrow=open;sourcePerimeterSpacing=8;targetPerimeterSpacing=8;fontSize=16;fontFamily=Architects Daughter;fontSource=https%3A%2F%2Ffonts.googleapis.com%2Fcss%3Ffamily%3DArchitects%2BDaughter;startSize=14;endSize=14;entryX=1.003;entryY=0.452;entryDx=0;entryDy=0;entryPerimeter=0;" parent="1" edge="1">
          <mxGeometry width="120" relative="1" as="geometry">
            <mxPoint x="270" y="616" as="sourcePoint" />
            <mxPoint x="-184.00199999999984" y="615.8600000000001" as="targetPoint" />
            <Array as="points">
              <mxPoint x="-27.130000000000003" y="611" />
              <mxPoint x="-11.13" y="611" />
            </Array>
          </mxGeometry>
        </mxCell>
        <mxCell id="z09Y47deeIsvJzvmOgGG-14" value="3:req-s:traceId2" style="text;html=1;align=center;verticalAlign=middle;resizable=0;points=[];autosize=1;strokeColor=none;sketch=1;hachureGap=4;pointerEvents=0;fontFamily=Architects Daughter;fontSource=https%3A%2F%2Ffonts.googleapis.com%2Fcss%3Ffamily%3DArchitects%2BDaughter;fontSize=20;" parent="1" vertex="1">
          <mxGeometry x="-74.13" y="571" width="153" height="28" as="geometry" />
        </mxCell>
        <mxCell id="z09Y47deeIsvJzvmOgGG-15" value="" style="edgeStyle=none;curved=1;rounded=0;sketch=1;orthogonalLoop=1;jettySize=auto;html=1;endArrow=open;sourcePerimeterSpacing=8;targetPerimeterSpacing=8;fontSize=16;fontFamily=Architects Daughter;fontSource=https%3A%2F%2Ffonts.googleapis.com%2Fcss%3Ffamily%3DArchitects%2BDaughter;startSize=14;endSize=14;entryX=1.003;entryY=0.452;entryDx=0;entryDy=0;entryPerimeter=0;" parent="1" edge="1">
          <mxGeometry width="120" relative="1" as="geometry">
            <mxPoint x="258.8715825250256" y="666.7559843898694" as="sourcePoint" />
            <mxPoint x="-184.00199999999995" y="672.8600000000001" as="targetPoint" />
            <Array as="points">
              <mxPoint x="-27.130000000000003" y="668" />
              <mxPoint x="-11.13" y="668" />
            </Array>
          </mxGeometry>
        </mxCell>
        <mxCell id="z09Y47deeIsvJzvmOgGG-16" value="3:req-s:traceId3" style="text;html=1;align=center;verticalAlign=middle;resizable=0;points=[];autosize=1;strokeColor=none;sketch=1;hachureGap=4;pointerEvents=0;fontFamily=Architects Daughter;fontSource=https%3A%2F%2Ffonts.googleapis.com%2Fcss%3Ffamily%3DArchitects%2BDaughter;fontSize=20;" parent="1" vertex="1">
          <mxGeometry x="-73.13" y="628" width="151" height="28" as="geometry" />
        </mxCell>
        <mxCell id="z09Y47deeIsvJzvmOgGG-17" value="" style="edgeStyle=none;curved=1;rounded=0;sketch=1;orthogonalLoop=1;jettySize=auto;html=1;endArrow=open;sourcePerimeterSpacing=8;targetPerimeterSpacing=8;fontSize=16;fontFamily=Architects Daughter;fontSource=https%3A%2F%2Ffonts.googleapis.com%2Fcss%3Ffamily%3DArchitects%2BDaughter;startSize=14;endSize=14;entryX=1.003;entryY=0.452;entryDx=0;entryDy=0;entryPerimeter=0;" parent="1" edge="1">
          <mxGeometry width="120" relative="1" as="geometry">
            <mxPoint x="261.8715825250256" y="726.7559843898694" as="sourcePoint" />
            <mxPoint x="-181.00199999999995" y="732.8600000000001" as="targetPoint" />
            <Array as="points">
              <mxPoint x="-24.130000000000003" y="728" />
              <mxPoint x="-8.13" y="728" />
            </Array>
          </mxGeometry>
        </mxCell>
        <mxCell id="z09Y47deeIsvJzvmOgGG-18" value="3:req-e:traceId1" style="text;html=1;align=center;verticalAlign=middle;resizable=0;points=[];autosize=1;strokeColor=none;sketch=1;hachureGap=4;pointerEvents=0;fontFamily=Architects Daughter;fontSource=https%3A%2F%2Ffonts.googleapis.com%2Fcss%3Ffamily%3DArchitects%2BDaughter;fontSize=20;" parent="1" vertex="1">
          <mxGeometry x="-67.13" y="688" width="145" height="28" as="geometry" />
        </mxCell>
        <mxCell id="z09Y47deeIsvJzvmOgGG-19" value="" style="edgeStyle=none;curved=1;rounded=0;sketch=1;orthogonalLoop=1;jettySize=auto;html=1;endArrow=open;sourcePerimeterSpacing=8;targetPerimeterSpacing=8;fontSize=16;fontFamily=Architects Daughter;fontSource=https%3A%2F%2Ffonts.googleapis.com%2Fcss%3Ffamily%3DArchitects%2BDaughter;startSize=14;endSize=14;entryX=1.003;entryY=0.452;entryDx=0;entryDy=0;entryPerimeter=0;" parent="1" edge="1">
          <mxGeometry width="120" relative="1" as="geometry">
            <mxPoint x="262.8715825250256" y="777.7559843898694" as="sourcePoint" />
            <mxPoint x="-180.00199999999995" y="783.8600000000001" as="targetPoint" />
            <Array as="points">
              <mxPoint x="-23.130000000000003" y="779" />
              <mxPoint x="-7.130000000000001" y="779" />
            </Array>
          </mxGeometry>
        </mxCell>
        <mxCell id="z09Y47deeIsvJzvmOgGG-20" value="3:req-e:traceId2" style="text;html=1;align=center;verticalAlign=middle;resizable=0;points=[];autosize=1;strokeColor=none;sketch=1;hachureGap=4;pointerEvents=0;fontFamily=Architects Daughter;fontSource=https%3A%2F%2Ffonts.googleapis.com%2Fcss%3Ffamily%3DArchitects%2BDaughter;fontSize=20;" parent="1" vertex="1">
          <mxGeometry x="-70.13" y="739" width="154" height="28" as="geometry" />
        </mxCell>
        <mxCell id="z09Y47deeIsvJzvmOgGG-21" value="" style="edgeStyle=none;curved=1;rounded=0;sketch=1;orthogonalLoop=1;jettySize=auto;html=1;endArrow=open;sourcePerimeterSpacing=8;targetPerimeterSpacing=8;fontSize=16;fontFamily=Architects Daughter;fontSource=https%3A%2F%2Ffonts.googleapis.com%2Fcss%3Ffamily%3DArchitects%2BDaughter;startSize=14;endSize=14;entryX=1.003;entryY=0.452;entryDx=0;entryDy=0;entryPerimeter=0;" parent="1" edge="1">
          <mxGeometry width="120" relative="1" as="geometry">
            <mxPoint x="268.0015825250256" y="831.7559843898694" as="sourcePoint" />
            <mxPoint x="-174.87199999999996" y="837.8600000000001" as="targetPoint" />
            <Array as="points">
              <mxPoint x="-18.000000000000004" y="833" />
              <mxPoint x="-2.000000000000001" y="833" />
            </Array>
          </mxGeometry>
        </mxCell>
        <mxCell id="z09Y47deeIsvJzvmOgGG-22" value="3:req-e:traceId3" style="text;html=1;align=center;verticalAlign=middle;resizable=0;points=[];autosize=1;strokeColor=none;sketch=1;hachureGap=4;pointerEvents=0;fontFamily=Architects Daughter;fontSource=https%3A%2F%2Ffonts.googleapis.com%2Fcss%3Ffamily%3DArchitects%2BDaughter;fontSize=20;" parent="1" vertex="1">
          <mxGeometry x="-64" y="793" width="152" height="28" as="geometry" />
        </mxCell>
        <mxCell id="z09Y47deeIsvJzvmOgGG-25" value="" style="rounded=0;whiteSpace=wrap;html=1;sketch=1;hachureGap=4;pointerEvents=0;fontFamily=Architects Daughter;fontSource=https%3A%2F%2Ffonts.googleapis.com%2Fcss%3Ffamily%3DArchitects%2BDaughter;fontSize=20;" parent="1" vertex="1">
          <mxGeometry x="-337" y="551" width="147" height="332" as="geometry" />
        </mxCell>
        <mxCell id="z09Y47deeIsvJzvmOgGG-26" value="traceId1" style="rounded=0;whiteSpace=wrap;html=1;sketch=1;hachureGap=4;pointerEvents=0;fontFamily=Architects Daughter;fontSource=https%3A%2F%2Ffonts.googleapis.com%2Fcss%3Ffamily%3DArchitects%2BDaughter;fontSize=20;" parent="1" vertex="1">
          <mxGeometry x="-315.5" y="558" width="114" height="42" as="geometry" />
        </mxCell>
        <mxCell id="z09Y47deeIsvJzvmOgGG-27" value="traceId2" style="rounded=0;whiteSpace=wrap;html=1;sketch=1;hachureGap=4;pointerEvents=0;fontFamily=Architects Daughter;fontSource=https%3A%2F%2Ffonts.googleapis.com%2Fcss%3Ffamily%3DArchitects%2BDaughter;fontSize=20;" parent="1" vertex="1">
          <mxGeometry x="-315.5" y="609" width="114" height="42" as="geometry" />
        </mxCell>
        <mxCell id="z09Y47deeIsvJzvmOgGG-28" value="traceId3" style="rounded=0;whiteSpace=wrap;html=1;sketch=1;hachureGap=4;pointerEvents=0;fontFamily=Architects Daughter;fontSource=https%3A%2F%2Ffonts.googleapis.com%2Fcss%3Ffamily%3DArchitects%2BDaughter;fontSize=20;" parent="1" vertex="1">
          <mxGeometry x="-315.5" y="660" width="114" height="42" as="geometry" />
        </mxCell>
        <mxCell id="z09Y47deeIsvJzvmOgGG-29" value="req queue" style="text;html=1;align=center;verticalAlign=middle;resizable=0;points=[];autosize=1;strokeColor=none;sketch=1;hachureGap=4;pointerEvents=0;fontFamily=Architects Daughter;fontSource=https%3A%2F%2Ffonts.googleapis.com%2Fcss%3Ffamily%3DArchitects%2BDaughter;fontSize=20;" parent="1" vertex="1">
          <mxGeometry x="-309" y="916" width="102" height="28" as="geometry" />
        </mxCell>
        <mxCell id="z09Y47deeIsvJzvmOgGG-30" value="" style="rounded=0;whiteSpace=wrap;html=1;sketch=1;hachureGap=4;pointerEvents=0;fontFamily=Architects Daughter;fontSource=https%3A%2F%2Ffonts.googleapis.com%2Fcss%3Ffamily%3DArchitects%2BDaughter;fontSize=20;" parent="1" vertex="1">
          <mxGeometry x="-1144" y="864" width="543" height="170" as="geometry" />
        </mxCell>
        <mxCell id="z09Y47deeIsvJzvmOgGG-31" value="live" style="ellipse;whiteSpace=wrap;html=1;sketch=1;hachureGap=4;pointerEvents=0;fontFamily=Architects Daughter;fontSource=https%3A%2F%2Ffonts.googleapis.com%2Fcss%3Ffamily%3DArchitects%2BDaughter;fontSize=20;" parent="1" vertex="1">
          <mxGeometry x="-933" y="1183" width="459" height="391" as="geometry" />
        </mxCell>
        <mxCell id="z09Y47deeIsvJzvmOgGG-32" value="" style="edgeStyle=none;curved=1;rounded=0;sketch=1;orthogonalLoop=1;jettySize=auto;html=1;endArrow=open;sourcePerimeterSpacing=8;targetPerimeterSpacing=8;fontSize=16;shape=flexArrow;rounded=1;startSize=8;endSize=8;fontFamily=Architects Daughter;fontSource=https%3A%2F%2Ffonts.googleapis.com%2Fcss%3Ffamily%3DArchitects%2BDaughter;" parent="1" edge="1">
          <mxGeometry width="140" relative="1" as="geometry">
            <mxPoint x="-144" y="1311" as="sourcePoint" />
            <mxPoint x="-461" y="1311" as="targetPoint" />
            <Array as="points" />
          </mxGeometry>
        </mxCell>
        <mxCell id="z09Y47deeIsvJzvmOgGG-33" value="connection" style="text;html=1;align=center;verticalAlign=middle;resizable=0;points=[];autosize=1;strokeColor=none;sketch=1;hachureGap=4;pointerEvents=0;fontFamily=Architects Daughter;fontSource=https%3A%2F%2Ffonts.googleapis.com%2Fcss%3Ffamily%3DArchitects%2BDaughter;fontSize=20;" parent="1" vertex="1">
          <mxGeometry x="-340" y="1252" width="110" height="28" as="geometry" />
        </mxCell>
        <mxCell id="z09Y47deeIsvJzvmOgGG-34" value="" style="edgeStyle=none;curved=1;rounded=0;sketch=1;orthogonalLoop=1;jettySize=auto;html=1;endArrow=open;sourcePerimeterSpacing=8;targetPerimeterSpacing=8;fontSize=16;shape=flexArrow;rounded=1;startSize=8;endSize=8;fontFamily=Architects Daughter;fontSource=https%3A%2F%2Ffonts.googleapis.com%2Fcss%3Ffamily%3DArchitects%2BDaughter;" parent="1" edge="1">
          <mxGeometry width="140" relative="1" as="geometry">
            <mxPoint x="-100" y="1387" as="sourcePoint" />
            <mxPoint x="-417" y="1387" as="targetPoint" />
            <Array as="points" />
          </mxGeometry>
        </mxCell>
        <mxCell id="z09Y47deeIsvJzvmOgGG-35" value="connection" style="text;html=1;align=center;verticalAlign=middle;resizable=0;points=[];autosize=1;strokeColor=none;sketch=1;hachureGap=4;pointerEvents=0;fontFamily=Architects Daughter;fontSource=https%3A%2F%2Ffonts.googleapis.com%2Fcss%3Ffamily%3DArchitects%2BDaughter;fontSize=20;" parent="1" vertex="1">
          <mxGeometry x="-296" y="1328" width="110" height="28" as="geometry" />
        </mxCell>
        <mxCell id="z09Y47deeIsvJzvmOgGG-36" value="" style="edgeStyle=none;curved=1;rounded=0;sketch=1;orthogonalLoop=1;jettySize=auto;html=1;endArrow=open;sourcePerimeterSpacing=8;targetPerimeterSpacing=8;fontSize=16;shape=flexArrow;rounded=1;startSize=8;endSize=8;fontFamily=Architects Daughter;fontSource=https%3A%2F%2Ffonts.googleapis.com%2Fcss%3Ffamily%3DArchitects%2BDaughter;fontStyle=1" parent="1" edge="1">
          <mxGeometry width="140" relative="1" as="geometry">
            <mxPoint x="-38" y="1457" as="sourcePoint" />
            <mxPoint x="-355" y="1457" as="targetPoint" />
            <Array as="points" />
          </mxGeometry>
        </mxCell>
        <mxCell id="z09Y47deeIsvJzvmOgGG-37" value="connection" style="text;html=1;align=center;verticalAlign=middle;resizable=0;points=[];autosize=1;strokeColor=none;sketch=1;hachureGap=4;pointerEvents=0;fontFamily=Architects Daughter;fontSource=https%3A%2F%2Ffonts.googleapis.com%2Fcss%3Ffamily%3DArchitects%2BDaughter;fontSize=20;fontStyle=1" parent="1" vertex="1">
          <mxGeometry x="-234" y="1398" width="110" height="28" as="geometry" />
        </mxCell>
        <mxCell id="z09Y47deeIsvJzvmOgGG-38" value="" style="edgeStyle=none;curved=1;rounded=0;sketch=1;orthogonalLoop=1;jettySize=auto;html=1;endArrow=open;sourcePerimeterSpacing=8;targetPerimeterSpacing=8;fontSize=16;shape=flexArrow;rounded=1;startSize=8;endSize=8;fontFamily=Architects Daughter;fontSource=https%3A%2F%2Ffonts.googleapis.com%2Fcss%3Ffamily%3DArchitects%2BDaughter;" parent="1" edge="1">
          <mxGeometry width="140" relative="1" as="geometry">
            <mxPoint x="315" y="1511" as="sourcePoint" />
            <mxPoint x="-2" y="1511" as="targetPoint" />
            <Array as="points" />
          </mxGeometry>
        </mxCell>
        <mxCell id="z09Y47deeIsvJzvmOgGG-39" value="connection" style="text;html=1;align=center;verticalAlign=middle;resizable=0;points=[];autosize=1;strokeColor=none;sketch=1;hachureGap=4;pointerEvents=0;fontFamily=Architects Daughter;fontSource=https%3A%2F%2Ffonts.googleapis.com%2Fcss%3Ffamily%3DArchitects%2BDaughter;fontSize=20;" parent="1" vertex="1">
          <mxGeometry x="120" y="1450" width="110" height="28" as="geometry" />
        </mxCell>
        <mxCell id="z09Y47deeIsvJzvmOgGG-42" value="" style="edgeStyle=none;curved=1;rounded=0;sketch=1;orthogonalLoop=1;jettySize=auto;html=1;endArrow=open;sourcePerimeterSpacing=8;targetPerimeterSpacing=8;fontSize=16;fontFamily=Architects Daughter;fontSource=https%3A%2F%2Ffonts.googleapis.com%2Fcss%3Ffamily%3DArchitects%2BDaughter;startSize=14;endSize=14;" parent="1" target="z09Y47deeIsvJzvmOgGG-1" edge="1">
          <mxGeometry width="120" relative="1" as="geometry">
            <mxPoint x="-615" y="1174" as="sourcePoint" />
            <mxPoint x="-827" y="1218" as="targetPoint" />
            <Array as="points">
              <mxPoint x="-620" y="1051" />
            </Array>
          </mxGeometry>
        </mxCell>
        <mxCell id="z09Y47deeIsvJzvmOgGG-43" value="4:session1-in:user1" style="text;html=1;align=center;verticalAlign=middle;resizable=0;points=[];autosize=1;strokeColor=none;sketch=1;hachureGap=4;pointerEvents=0;fontFamily=Architects Daughter;fontSource=https%3A%2F%2Ffonts.googleapis.com%2Fcss%3Ffamily%3DArchitects%2BDaughter;fontSize=20;" parent="1" vertex="1">
          <mxGeometry x="-614" y="1090" width="162" height="28" as="geometry" />
        </mxCell>
        <mxCell id="z09Y47deeIsvJzvmOgGG-44" value="" style="edgeStyle=none;curved=1;rounded=0;sketch=1;orthogonalLoop=1;jettySize=auto;html=1;endArrow=open;sourcePerimeterSpacing=8;targetPerimeterSpacing=8;fontSize=16;fontFamily=Architects Daughter;fontSource=https%3A%2F%2Ffonts.googleapis.com%2Fcss%3Ffamily%3DArchitects%2BDaughter;startSize=14;endSize=14;" parent="1" edge="1">
          <mxGeometry width="120" relative="1" as="geometry">
            <mxPoint x="-832.55" y="1173" as="sourcePoint" />
            <mxPoint x="-839.0042635658913" y="1043" as="targetPoint" />
            <Array as="points">
              <mxPoint x="-837.55" y="1050" />
            </Array>
          </mxGeometry>
        </mxCell>
        <mxCell id="z09Y47deeIsvJzvmOgGG-45" value="4:session2-in:user1" style="text;html=1;align=center;verticalAlign=middle;resizable=0;points=[];autosize=1;strokeColor=none;sketch=1;hachureGap=4;pointerEvents=0;fontFamily=Architects Daughter;fontSource=https%3A%2F%2Ffonts.googleapis.com%2Fcss%3Ffamily%3DArchitects%2BDaughter;fontSize=20;" parent="1" vertex="1">
          <mxGeometry x="-835" y="1090" width="171" height="28" as="geometry" />
        </mxCell>
        <mxCell id="z09Y47deeIsvJzvmOgGG-46" value="" style="edgeStyle=none;curved=1;rounded=0;sketch=1;orthogonalLoop=1;jettySize=auto;html=1;endArrow=open;sourcePerimeterSpacing=8;targetPerimeterSpacing=8;fontSize=16;fontFamily=Architects Daughter;fontSource=https%3A%2F%2Ffonts.googleapis.com%2Fcss%3Ffamily%3DArchitects%2BDaughter;startSize=14;endSize=14;" parent="1" edge="1">
          <mxGeometry width="120" relative="1" as="geometry">
            <mxPoint x="-980.5500000000002" y="1178" as="sourcePoint" />
            <mxPoint x="-987.004263565891" y="1048" as="targetPoint" />
            <Array as="points">
              <mxPoint x="-985.55" y="1055" />
            </Array>
          </mxGeometry>
        </mxCell>
        <mxCell id="z09Y47deeIsvJzvmOgGG-47" value="4:session3-in:user2" style="text;html=1;align=center;verticalAlign=middle;resizable=0;points=[];autosize=1;strokeColor=none;sketch=1;hachureGap=4;pointerEvents=0;fontFamily=Architects Daughter;fontSource=https%3A%2F%2Ffonts.googleapis.com%2Fcss%3Ffamily%3DArchitects%2BDaughter;fontSize=20;" parent="1" vertex="1">
          <mxGeometry x="-1033" y="1180" width="178" height="28" as="geometry" />
        </mxCell>
        <mxCell id="z09Y47deeIsvJzvmOgGG-48" value="" style="edgeStyle=none;curved=1;rounded=0;sketch=1;orthogonalLoop=1;jettySize=auto;html=1;endArrow=open;sourcePerimeterSpacing=8;targetPerimeterSpacing=8;fontSize=16;fontFamily=Architects Daughter;fontSource=https%3A%2F%2Ffonts.googleapis.com%2Fcss%3Ffamily%3DArchitects%2BDaughter;startSize=14;endSize=14;" parent="1" edge="1">
          <mxGeometry width="120" relative="1" as="geometry">
            <mxPoint x="-1126.5500000000002" y="1180" as="sourcePoint" />
            <mxPoint x="-1133.004263565891" y="1050" as="targetPoint" />
            <Array as="points">
              <mxPoint x="-1131.55" y="1057" />
            </Array>
          </mxGeometry>
        </mxCell>
        <mxCell id="z09Y47deeIsvJzvmOgGG-49" value="4:session1-out:user1" style="text;html=1;align=center;verticalAlign=middle;resizable=0;points=[];autosize=1;strokeColor=none;sketch=1;hachureGap=4;pointerEvents=0;fontFamily=Architects Daughter;fontSource=https%3A%2F%2Ffonts.googleapis.com%2Fcss%3Ffamily%3DArchitects%2BDaughter;fontSize=20;" parent="1" vertex="1">
          <mxGeometry x="-1230" y="1194" width="178" height="28" as="geometry" />
        </mxCell>
        <mxCell id="z09Y47deeIsvJzvmOgGG-50" value="session:user" style="rounded=0;whiteSpace=wrap;html=1;sketch=1;hachureGap=4;pointerEvents=0;fontFamily=Architects Daughter;fontSource=https%3A%2F%2Ffonts.googleapis.com%2Fcss%3Ffamily%3DArchitects%2BDaughter;fontSize=20;" parent="1" vertex="1">
          <mxGeometry x="-739" y="893" width="115.5" height="108" as="geometry" />
        </mxCell>
        <mxCell id="z09Y47deeIsvJzvmOgGG-51" value="session:user" style="rounded=0;whiteSpace=wrap;html=1;sketch=1;hachureGap=4;pointerEvents=0;fontFamily=Architects Daughter;fontSource=https%3A%2F%2Ffonts.googleapis.com%2Fcss%3Ffamily%3DArchitects%2BDaughter;fontSize=20;" parent="1" vertex="1">
          <mxGeometry x="-859" y="893" width="115.5" height="108" as="geometry" />
        </mxCell>
        <mxCell id="z09Y47deeIsvJzvmOgGG-52" value="session:user" style="rounded=0;whiteSpace=wrap;html=1;sketch=1;hachureGap=4;pointerEvents=0;fontFamily=Architects Daughter;fontSource=https%3A%2F%2Ffonts.googleapis.com%2Fcss%3Ffamily%3DArchitects%2BDaughter;fontSize=20;" parent="1" vertex="1">
          <mxGeometry x="-981" y="893" width="115.5" height="108" as="geometry" />
        </mxCell>
        <mxCell id="z09Y47deeIsvJzvmOgGG-53" value="" style="rounded=0;whiteSpace=wrap;html=1;sketch=1;hachureGap=4;pointerEvents=0;fontFamily=Architects Daughter;fontSource=https%3A%2F%2Ffonts.googleapis.com%2Fcss%3Ffamily%3DArchitects%2BDaughter;fontSize=20;" parent="1" vertex="1">
          <mxGeometry x="-1160" y="441" width="305" height="180" as="geometry" />
        </mxCell>
        <mxCell id="z09Y47deeIsvJzvmOgGG-74" style="edgeStyle=none;curved=1;rounded=0;sketch=1;orthogonalLoop=1;jettySize=auto;html=1;fontFamily=Architects Daughter;fontSource=https%3A%2F%2Ffonts.googleapis.com%2Fcss%3Ffamily%3DArchitects%2BDaughter;fontSize=20;endArrow=open;startSize=14;endSize=14;sourcePerimeterSpacing=8;targetPerimeterSpacing=8;" parent="1" target="z09Y47deeIsvJzvmOgGG-54" edge="1">
          <mxGeometry relative="1" as="geometry">
            <mxPoint x="-1345" y="467" as="sourcePoint" />
            <mxPoint x="-1313" y="514" as="targetPoint" />
          </mxGeometry>
        </mxCell>
        <mxCell id="z09Y47deeIsvJzvmOgGG-54" value="log" style="ellipse;whiteSpace=wrap;html=1;sketch=1;hachureGap=4;pointerEvents=0;fontFamily=Architects Daughter;fontSource=https%3A%2F%2Ffonts.googleapis.com%2Fcss%3Ffamily%3DArchitects%2BDaughter;fontSize=20;" parent="1" vertex="1">
          <mxGeometry x="-1147" y="450" width="33.6" height="42" as="geometry" />
        </mxCell>
        <mxCell id="z09Y47deeIsvJzvmOgGG-55" value="log" style="ellipse;whiteSpace=wrap;html=1;sketch=1;hachureGap=4;pointerEvents=0;fontFamily=Architects Daughter;fontSource=https%3A%2F%2Ffonts.googleapis.com%2Fcss%3Ffamily%3DArchitects%2BDaughter;fontSize=20;" parent="1" vertex="1">
          <mxGeometry x="-1083" y="562" width="33.6" height="42" as="geometry" />
        </mxCell>
        <mxCell id="z09Y47deeIsvJzvmOgGG-56" value="log" style="ellipse;whiteSpace=wrap;html=1;sketch=1;hachureGap=4;pointerEvents=0;fontFamily=Architects Daughter;fontSource=https%3A%2F%2Ffonts.googleapis.com%2Fcss%3Ffamily%3DArchitects%2BDaughter;fontSize=20;" parent="1" vertex="1">
          <mxGeometry x="-1102" y="452" width="33.6" height="42" as="geometry" />
        </mxCell>
        <mxCell id="z09Y47deeIsvJzvmOgGG-57" value="log" style="ellipse;whiteSpace=wrap;html=1;sketch=1;hachureGap=4;pointerEvents=0;fontFamily=Architects Daughter;fontSource=https%3A%2F%2Ffonts.googleapis.com%2Fcss%3Ffamily%3DArchitects%2BDaughter;fontSize=20;" parent="1" vertex="1">
          <mxGeometry x="-1059" y="448" width="33.6" height="42" as="geometry" />
        </mxCell>
        <mxCell id="z09Y47deeIsvJzvmOgGG-58" value="log" style="ellipse;whiteSpace=wrap;html=1;sketch=1;hachureGap=4;pointerEvents=0;fontFamily=Architects Daughter;fontSource=https%3A%2F%2Ffonts.googleapis.com%2Fcss%3Ffamily%3DArchitects%2BDaughter;fontSize=20;" parent="1" vertex="1">
          <mxGeometry x="-1014.6" y="450" width="33.6" height="42" as="geometry" />
        </mxCell>
        <mxCell id="z09Y47deeIsvJzvmOgGG-59" value="log" style="ellipse;whiteSpace=wrap;html=1;sketch=1;hachureGap=4;pointerEvents=0;fontFamily=Architects Daughter;fontSource=https%3A%2F%2Ffonts.googleapis.com%2Fcss%3Ffamily%3DArchitects%2BDaughter;fontSize=20;" parent="1" vertex="1">
          <mxGeometry x="-960.8" y="452" width="33.6" height="42" as="geometry" />
        </mxCell>
        <mxCell id="z09Y47deeIsvJzvmOgGG-60" value="log" style="ellipse;whiteSpace=wrap;html=1;sketch=1;hachureGap=4;pointerEvents=0;fontFamily=Architects Daughter;fontSource=https%3A%2F%2Ffonts.googleapis.com%2Fcss%3Ffamily%3DArchitects%2BDaughter;fontSize=20;" parent="1" vertex="1">
          <mxGeometry x="-906" y="448" width="33.6" height="42" as="geometry" />
        </mxCell>
        <mxCell id="z09Y47deeIsvJzvmOgGG-61" value="log" style="ellipse;whiteSpace=wrap;html=1;sketch=1;hachureGap=4;pointerEvents=0;fontFamily=Architects Daughter;fontSource=https%3A%2F%2Ffonts.googleapis.com%2Fcss%3Ffamily%3DArchitects%2BDaughter;fontSize=20;" parent="1" vertex="1">
          <mxGeometry x="-927.2" y="488" width="33.6" height="42" as="geometry" />
        </mxCell>
        <mxCell id="z09Y47deeIsvJzvmOgGG-62" value="log" style="ellipse;whiteSpace=wrap;html=1;sketch=1;hachureGap=4;pointerEvents=0;fontFamily=Architects Daughter;fontSource=https%3A%2F%2Ffonts.googleapis.com%2Fcss%3Ffamily%3DArchitects%2BDaughter;fontSize=20;" parent="1" vertex="1">
          <mxGeometry x="-981" y="494" width="33.6" height="42" as="geometry" />
        </mxCell>
        <mxCell id="z09Y47deeIsvJzvmOgGG-63" value="log" style="ellipse;whiteSpace=wrap;html=1;sketch=1;hachureGap=4;pointerEvents=0;fontFamily=Architects Daughter;fontSource=https%3A%2F%2Ffonts.googleapis.com%2Fcss%3Ffamily%3DArchitects%2BDaughter;fontSize=20;" parent="1" vertex="1">
          <mxGeometry x="-1037" y="500" width="33.6" height="42" as="geometry" />
        </mxCell>
        <mxCell id="z09Y47deeIsvJzvmOgGG-64" value="log" style="ellipse;whiteSpace=wrap;html=1;sketch=1;hachureGap=4;pointerEvents=0;fontFamily=Architects Daughter;fontSource=https%3A%2F%2Ffonts.googleapis.com%2Fcss%3Ffamily%3DArchitects%2BDaughter;fontSize=20;" parent="1" vertex="1">
          <mxGeometry x="-1085.6" y="502" width="33.6" height="42" as="geometry" />
        </mxCell>
        <mxCell id="z09Y47deeIsvJzvmOgGG-65" value="log" style="ellipse;whiteSpace=wrap;html=1;sketch=1;hachureGap=4;pointerEvents=0;fontFamily=Architects Daughter;fontSource=https%3A%2F%2Ffonts.googleapis.com%2Fcss%3Ffamily%3DArchitects%2BDaughter;fontSize=20;" parent="1" vertex="1">
          <mxGeometry x="-1135.6" y="502" width="33.6" height="42" as="geometry" />
        </mxCell>
        <mxCell id="z09Y47deeIsvJzvmOgGG-66" value="log" style="ellipse;whiteSpace=wrap;html=1;sketch=1;hachureGap=4;pointerEvents=0;fontFamily=Architects Daughter;fontSource=https%3A%2F%2Ffonts.googleapis.com%2Fcss%3Ffamily%3DArchitects%2BDaughter;fontSize=20;" parent="1" vertex="1">
          <mxGeometry x="-1140" y="560" width="33.6" height="42" as="geometry" />
        </mxCell>
        <mxCell id="z09Y47deeIsvJzvmOgGG-67" value="log" style="ellipse;whiteSpace=wrap;html=1;sketch=1;hachureGap=4;pointerEvents=0;fontFamily=Architects Daughter;fontSource=https%3A%2F%2Ffonts.googleapis.com%2Fcss%3Ffamily%3DArchitects%2BDaughter;fontSize=20;" parent="1" vertex="1">
          <mxGeometry x="-1027" y="560" width="33.6" height="42" as="geometry" />
        </mxCell>
        <mxCell id="z09Y47deeIsvJzvmOgGG-68" value="log" style="ellipse;whiteSpace=wrap;html=1;sketch=1;hachureGap=4;pointerEvents=0;fontFamily=Architects Daughter;fontSource=https%3A%2F%2Ffonts.googleapis.com%2Fcss%3Ffamily%3DArchitects%2BDaughter;fontSize=20;" parent="1" vertex="1">
          <mxGeometry x="-981" y="557" width="33.6" height="42" as="geometry" />
        </mxCell>
        <mxCell id="z09Y47deeIsvJzvmOgGG-69" value="log" style="ellipse;whiteSpace=wrap;html=1;sketch=1;hachureGap=4;pointerEvents=0;fontFamily=Architects Daughter;fontSource=https%3A%2F%2Ffonts.googleapis.com%2Fcss%3Ffamily%3DArchitects%2BDaughter;fontSize=20;" parent="1" vertex="1">
          <mxGeometry x="-927.2" y="557" width="33.6" height="42" as="geometry" />
        </mxCell>
        <mxCell id="z09Y47deeIsvJzvmOgGG-70" value="log" style="ellipse;whiteSpace=wrap;html=1;sketch=1;hachureGap=4;pointerEvents=0;fontFamily=Architects Daughter;fontSource=https%3A%2F%2Ffonts.googleapis.com%2Fcss%3Ffamily%3DArchitects%2BDaughter;fontSize=20;" parent="1" vertex="1">
          <mxGeometry x="-888.6" y="557" width="33.6" height="42" as="geometry" />
        </mxCell>
        <mxCell id="z09Y47deeIsvJzvmOgGG-71" value="" style="edgeStyle=none;curved=1;rounded=0;sketch=1;orthogonalLoop=1;jettySize=auto;html=1;endArrow=open;sourcePerimeterSpacing=8;targetPerimeterSpacing=8;fontSize=16;fontFamily=Architects Daughter;fontSource=https%3A%2F%2Ffonts.googleapis.com%2Fcss%3Ffamily%3DArchitects%2BDaughter;startSize=14;endSize=14;" parent="1" source="z09Y47deeIsvJzvmOgGG-70" edge="1">
          <mxGeometry width="120" relative="1" as="geometry">
            <mxPoint x="-783" y="620" as="sourcePoint" />
            <mxPoint x="-790" y="400.6" as="targetPoint" />
            <Array as="points">
              <mxPoint x="-774" y="609" />
            </Array>
          </mxGeometry>
        </mxCell>
        <mxCell id="z09Y47deeIsvJzvmOgGG-72" value="out with persist rate" style="text;html=1;align=center;verticalAlign=middle;resizable=0;points=[];autosize=1;strokeColor=none;sketch=1;hachureGap=4;pointerEvents=0;fontFamily=Architects Daughter;fontSource=https%3A%2F%2Ffonts.googleapis.com%2Fcss%3Ffamily%3DArchitects%2BDaughter;fontSize=20;" parent="1" vertex="1">
          <mxGeometry x="-781" y="508" width="205" height="28" as="geometry" />
        </mxCell>
        <mxCell id="z09Y47deeIsvJzvmOgGG-75" value="in" style="text;html=1;align=center;verticalAlign=middle;resizable=0;points=[];autosize=1;strokeColor=none;sketch=1;hachureGap=4;pointerEvents=0;fontFamily=Architects Daughter;fontSource=https%3A%2F%2Ffonts.googleapis.com%2Fcss%3Ffamily%3DArchitects%2BDaughter;fontSize=20;" parent="1" vertex="1">
          <mxGeometry x="-1278" y="429" width="23" height="28" as="geometry" />
        </mxCell>
        <mxCell id="z09Y47deeIsvJzvmOgGG-76" value="traceId1" style="rounded=0;whiteSpace=wrap;html=1;sketch=1;hachureGap=4;pointerEvents=0;fontFamily=Architects Daughter;fontSource=https%3A%2F%2Ffonts.googleapis.com%2Fcss%3Ffamily%3DArchitects%2BDaughter;fontSize=20;" parent="1" vertex="1">
          <mxGeometry x="-454" y="716" width="114" height="42" as="geometry" />
        </mxCell>
        <mxCell id="z09Y47deeIsvJzvmOgGG-77" value="traceId2" style="rounded=0;whiteSpace=wrap;html=1;sketch=1;hachureGap=4;pointerEvents=0;fontFamily=Architects Daughter;fontSource=https%3A%2F%2Ffonts.googleapis.com%2Fcss%3Ffamily%3DArchitects%2BDaughter;fontSize=20;" parent="1" vertex="1">
          <mxGeometry x="-452" y="767" width="114" height="42" as="geometry" />
        </mxCell>
        <mxCell id="z09Y47deeIsvJzvmOgGG-78" value="traceId3" style="rounded=0;whiteSpace=wrap;html=1;sketch=1;hachureGap=4;pointerEvents=0;fontFamily=Architects Daughter;fontSource=https%3A%2F%2Ffonts.googleapis.com%2Fcss%3Ffamily%3DArchitects%2BDaughter;fontSize=20;" parent="1" vertex="1">
          <mxGeometry x="-451" y="821" width="114" height="42" as="geometry" />
        </mxCell>
        <mxCell id="z09Y47deeIsvJzvmOgGG-79" value="session:user" style="rounded=0;whiteSpace=wrap;html=1;sketch=1;hachureGap=4;pointerEvents=0;fontFamily=Architects Daughter;fontSource=https%3A%2F%2Ffonts.googleapis.com%2Fcss%3Ffamily%3DArchitects%2BDaughter;fontSize=20;" parent="1" vertex="1">
          <mxGeometry x="-1163" y="753" width="115.5" height="108" as="geometry" />
        </mxCell>
        <mxCell id="mx6Oh0K_bggkPOcva09H-3" value="Vertical Container" style="swimlane;" vertex="1" parent="1">
          <mxGeometry x="-246" y="7" width="208" height="348" as="geometry" />
        </mxCell>
        <mxCell id="mx6Oh0K_bggkPOcva09H-20" value="" style="shape=image;html=1;verticalAlign=top;verticalLabelPosition=bottom;labelBackgroundColor=#ffffff;imageAspect=0;aspect=fixed;image=https://cdn2.iconfinder.com/data/icons/font-awesome/1792/qrcode-128.png" vertex="1" parent="mx6Oh0K_bggkPOcva09H-3">
          <mxGeometry x="50.870000000000005" y="110" width="128" height="128" as="geometry" />
        </mxCell>
        <mxCell id="mx6Oh0K_bggkPOcva09H-4" value="Vertical Container" style="swimlane;" vertex="1" parent="1">
          <mxGeometry x="-236" y="17" width="208" height="348" as="geometry" />
        </mxCell>
        <mxCell id="mx6Oh0K_bggkPOcva09H-5" value="ManageTool Client N" style="swimlane;" vertex="1" parent="1">
          <mxGeometry x="-226" y="27" width="208" height="348" as="geometry" />
        </mxCell>
        <mxCell id="mx6Oh0K_bggkPOcva09H-6" value="" style="shape=flexArrow;endArrow=classic;startArrow=classic;html=1;" edge="1" parent="1" source="z09Y47deeIsvJzvmOgGG-1">
          <mxGeometry width="100" height="100" relative="1" as="geometry">
            <mxPoint x="-659" y="377" as="sourcePoint" />
            <mxPoint x="-220" y="239" as="targetPoint" />
          </mxGeometry>
        </mxCell>
        <mxCell id="mx6Oh0K_bggkPOcva09H-7" value="websocket" style="text;html=1;align=center;verticalAlign=middle;resizable=0;points=[];autosize=1;strokeColor=none;" vertex="1" parent="1">
          <mxGeometry x="-370" y="303" width="67" height="18" as="geometry" />
        </mxCell>
        <mxCell id="mx6Oh0K_bggkPOcva09H-8" value="" style="endArrow=none;dashed=1;html=1;" edge="1" parent="1">
          <mxGeometry width="50" height="50" relative="1" as="geometry">
            <mxPoint x="4" y="159" as="sourcePoint" />
            <mxPoint x="150" y="159" as="targetPoint" />
          </mxGeometry>
        </mxCell>
        <mxCell id="mx6Oh0K_bggkPOcva09H-9" value="SESSION_ID" style="edgeLabel;html=1;align=center;verticalAlign=middle;resizable=0;points=[];" vertex="1" connectable="0" parent="mx6Oh0K_bggkPOcva09H-8">
          <mxGeometry x="0.589" y="-4" relative="1" as="geometry">
            <mxPoint x="-3" y="-20" as="offset" />
          </mxGeometry>
        </mxCell>
        <mxCell id="mx6Oh0K_bggkPOcva09H-10" value="" style="endArrow=none;dashed=1;html=1;" edge="1" parent="1">
          <mxGeometry width="50" height="50" relative="1" as="geometry">
            <mxPoint x="4" y="200.76" as="sourcePoint" />
            <mxPoint x="150" y="200.76" as="targetPoint" />
          </mxGeometry>
        </mxCell>
        <mxCell id="mx6Oh0K_bggkPOcva09H-11" value="SESSION_LOGIN_SHARE" style="edgeLabel;html=1;align=center;verticalAlign=middle;resizable=0;points=[];" vertex="1" connectable="0" parent="mx6Oh0K_bggkPOcva09H-10">
          <mxGeometry x="0.589" y="-4" relative="1" as="geometry">
            <mxPoint x="-3" y="-20" as="offset" />
          </mxGeometry>
        </mxCell>
        <mxCell id="mx6Oh0K_bggkPOcva09H-13" value="" style="endArrow=none;dashed=1;html=1;" edge="1" parent="1">
          <mxGeometry width="50" height="50" relative="1" as="geometry">
            <mxPoint x="4" y="239" as="sourcePoint" />
            <mxPoint x="150" y="239" as="targetPoint" />
          </mxGeometry>
        </mxCell>
        <mxCell id="mx6Oh0K_bggkPOcva09H-14" value="QPS" style="edgeLabel;html=1;align=center;verticalAlign=middle;resizable=0;points=[];" vertex="1" connectable="0" parent="mx6Oh0K_bggkPOcva09H-13">
          <mxGeometry x="0.589" y="-4" relative="1" as="geometry">
            <mxPoint x="-3" y="-20" as="offset" />
          </mxGeometry>
        </mxCell>
        <mxCell id="mx6Oh0K_bggkPOcva09H-15" value="" style="endArrow=none;dashed=1;html=1;" edge="1" parent="1">
          <mxGeometry width="50" height="50" relative="1" as="geometry">
            <mxPoint x="5" y="277" as="sourcePoint" />
            <mxPoint x="151" y="277" as="targetPoint" />
          </mxGeometry>
        </mxCell>
        <mxCell id="mx6Oh0K_bggkPOcva09H-16" value="LPS" style="edgeLabel;html=1;align=center;verticalAlign=middle;resizable=0;points=[];" vertex="1" connectable="0" parent="mx6Oh0K_bggkPOcva09H-15">
          <mxGeometry x="0.589" y="-4" relative="1" as="geometry">
            <mxPoint x="-3" y="-20" as="offset" />
          </mxGeometry>
        </mxCell>
        <mxCell id="mx6Oh0K_bggkPOcva09H-17" value="" style="endArrow=none;dashed=1;html=1;" edge="1" parent="1">
          <mxGeometry width="50" height="50" relative="1" as="geometry">
            <mxPoint x="5" y="311.76" as="sourcePoint" />
            <mxPoint x="151" y="311.76" as="targetPoint" />
          </mxGeometry>
        </mxCell>
        <mxCell id="mx6Oh0K_bggkPOcva09H-18" value="SESSION_DATA" style="edgeLabel;html=1;align=center;verticalAlign=middle;resizable=0;points=[];" vertex="1" connectable="0" parent="mx6Oh0K_bggkPOcva09H-17">
          <mxGeometry x="0.589" y="-4" relative="1" as="geometry">
            <mxPoint x="-3" y="-20" as="offset" />
          </mxGeometry>
        </mxCell>
        <mxCell id="mx6Oh0K_bggkPOcva09H-26" style="edgeStyle=orthogonalEdgeStyle;rounded=0;orthogonalLoop=1;jettySize=auto;html=1;" edge="1" parent="1" source="mx6Oh0K_bggkPOcva09H-28" target="mx6Oh0K_bggkPOcva09H-20">
          <mxGeometry relative="1" as="geometry" />
        </mxCell>
        <mxCell id="mx6Oh0K_bggkPOcva09H-19" value="ManageTool Client A" style="swimlane;" vertex="1" parent="1">
          <mxGeometry x="-748" y="-85" width="208" height="348" as="geometry" />
        </mxCell>
        <mxCell id="mx6Oh0K_bggkPOcva09H-28" value="" style="whiteSpace=wrap;html=1;aspect=fixed;" vertex="1" parent="mx6Oh0K_bggkPOcva09H-19">
          <mxGeometry x="59" y="129" width="80" height="80" as="geometry" />
        </mxCell>
        <mxCell id="mx6Oh0K_bggkPOcva09H-29" value="" style="endArrow=none;html=1;" edge="1" parent="mx6Oh0K_bggkPOcva09H-19">
          <mxGeometry width="50" height="50" relative="1" as="geometry">
            <mxPoint x="76.5" y="168.57999999999998" as="sourcePoint" />
            <mxPoint x="121.5" y="168.57999999999998" as="targetPoint" />
          </mxGeometry>
        </mxCell>
        <mxCell id="mx6Oh0K_bggkPOcva09H-30" value="确认登录" style="rounded=1;whiteSpace=wrap;html=1;" vertex="1" parent="mx6Oh0K_bggkPOcva09H-19">
          <mxGeometry x="39.5" y="263" width="129" height="35" as="geometry" />
        </mxCell>
        <mxCell id="mx6Oh0K_bggkPOcva09H-27" value="1. scan code =&amp;gt; REQ_LOGIN:{sessionId}" style="text;html=1;align=center;verticalAlign=middle;resizable=0;points=[];autosize=1;strokeColor=none;" vertex="1" parent="1">
          <mxGeometry x="-509.5" y="54" width="231" height="18" as="geometry" />
        </mxCell>
        <mxCell id="mx6Oh0K_bggkPOcva09H-31" style="edgeStyle=orthogonalEdgeStyle;rounded=0;orthogonalLoop=1;jettySize=auto;html=1;" edge="1" parent="1" source="mx6Oh0K_bggkPOcva09H-30" target="z09Y47deeIsvJzvmOgGG-1">
          <mxGeometry relative="1" as="geometry">
            <Array as="points">
              <mxPoint x="-644" y="376" />
              <mxPoint x="-644" y="376" />
            </Array>
          </mxGeometry>
        </mxCell>
        <mxCell id="mx6Oh0K_bggkPOcva09H-32" value="2. 确认登录，REQ_LOGIN_SURE" style="text;html=1;align=center;verticalAlign=middle;resizable=0;points=[];autosize=1;strokeColor=none;" vertex="1" parent="1">
          <mxGeometry x="-636" y="316" width="193" height="18" as="geometry" />
        </mxCell>
        <mxCell id="mx6Oh0K_bggkPOcva09H-34" style="edgeStyle=orthogonalEdgeStyle;rounded=0;orthogonalLoop=1;jettySize=auto;html=1;" edge="1" parent="1" source="mx6Oh0K_bggkPOcva09H-33">
          <mxGeometry relative="1" as="geometry">
            <mxPoint x="-110.5" y="371.16666666666674" as="targetPoint" />
          </mxGeometry>
        </mxCell>
        <mxCell id="mx6Oh0K_bggkPOcva09H-33" value="login manager" style="ellipse;shape=cloud;whiteSpace=wrap;html=1;" vertex="1" parent="1">
          <mxGeometry x="-699" y="420" width="120" height="80" as="geometry" />
        </mxCell>
        <mxCell id="mx6Oh0K_bggkPOcva09H-35" value="3. 登录信息传递： SESSION_LOGIN_SHARE, account" style="text;html=1;align=center;verticalAlign=middle;resizable=0;points=[];autosize=1;strokeColor=none;" vertex="1" parent="1">
          <mxGeometry x="-566" y="434" width="305" height="18" as="geometry" />
        </mxCell>
      </root>
    </mxGraphModel>
  </diagram>
</mxfile>
